<svg xmlns="http://www.w3.org/2000/svg" width="100" height="101" viewBox="0 0 100 101" fill="none">
    <path d="M51.4058 1.94493C51.4058 2.69426 50.7954 3.29993 50.0413 3.29993C49.2862 3.29993 48.6794 2.69337 48.6794 1.94493C48.6794 1.19649 49.2862 0.59082 50.0413 0.59082C50.7954 0.59082 51.4058 1.19649 51.4058 1.94493ZM59.3434 4.89967C59.3434 5.649 59.9529 6.25467 60.7053 6.25467C61.4567 6.25467 62.0672 5.64811 62.0672 4.89967C62.0672 4.15035 61.4567 3.54556 60.7053 3.54556C59.9529 3.54556 59.3434 4.15035 59.3434 4.89967ZM39.2916 3.54556C38.5401 3.54556 37.9297 4.15123 37.9297 4.89967C37.9297 5.649 38.5401 6.25467 39.2916 6.25467C40.0439 6.25467 40.6535 5.64811 40.6535 4.89967C40.6535 4.15035 40.0448 3.54556 39.2916 3.54556ZM61.7004 6.70693H59.9056C59.903 6.71845 59.9003 6.7291 59.8985 6.73974H59.811C59.2506 8.61172 57.4772 8.71104 55.454 8.44501C53.4371 8.17986 51.7003 5.89552 51.1203 3.75218H51.0016H49.0024H48.8829C48.3001 5.89641 46.5669 8.18519 44.5473 8.44501C42.4759 8.71104 40.7454 8.61261 40.1894 6.73974H40.1019C40.0993 6.7291 40.0966 6.71757 40.0948 6.70693H38.2983C38.9971 9.43909 39.6968 12.1704 40.3956 14.9025C40.4768 14.8671 40.6178 14.8325 40.8105 14.7988C40.8168 14.8068 40.8248 14.8094 40.8275 14.8068C40.8311 14.8041 40.8284 14.7961 40.8284 14.7961C42.1296 14.5753 45.745 14.4175 50.0047 14.4175C54.2599 14.4175 57.8726 14.5762 59.1774 14.7961C59.2568 14.8068 59.3452 14.8236 59.4389 14.8484C59.4987 14.8644 59.554 14.8821 59.6058 14.8999C60.3028 12.1677 61.0016 9.43732 61.7004 6.70693Z" fill="white"/>
    <path d="M7.38346 41.7849C6.63201 48.692 7.3549 56.3564 11.2603 63.2254C15.2541 70.2495 21.52 77.0414 29.5254 80.9787C40.5259 86.3889 42.309 85.8134 51.3782 88.8976C63.4434 92.9998 64.6865 100.591 64.6865 100.591H63.3264C59.6807 92.8881 52.8463 90.907 50.8525 90.0584C43.6504 86.991 29.354 84.5426 19.2139 74.6799C15.8243 71.3811 5.79845 61.1743 6.64182 44.9799C7.56552 27.2373 16.6793 17.6166 16.6793 17.6166C8.98989 26.9544 8.13491 34.8777 7.38346 41.7849ZM8.63201 49.0245C15.3174 45.5483 14.0564 40.5372 14.0421 40.4875C14.0082 40.3598 13.9154 40.2561 13.7931 40.2055C13.6708 40.155 13.5307 40.1638 13.4156 40.2303C6.74624 44.0594 7.96802 48.5767 8.02335 48.7673C8.05905 48.8897 8.1483 48.9899 8.2661 49.0405C8.31965 49.0635 8.37677 49.0742 8.43388 49.0742C8.5026 49.0733 8.57043 49.0573 8.63201 49.0245ZM10.9363 57.9765C10.8569 58.0475 10.7552 58.0856 10.6508 58.0856C10.6293 58.0856 10.607 58.0838 10.5856 58.0803C10.4589 58.0608 10.3473 57.9854 10.2822 57.8754C10.1813 57.7043 7.87163 53.6287 13.379 48.2778C13.4736 48.1856 13.6075 48.1422 13.7387 48.1608C13.8699 48.1794 13.9859 48.2583 14.0501 48.3727C14.076 48.4197 16.5463 52.9636 10.9363 57.9765ZM18.3643 25.7493C18.4964 25.7493 18.6204 25.8096 18.7016 25.9133C18.7829 26.0179 18.8114 26.1536 18.7775 26.2813C18.765 26.3301 18.45 27.4847 17.2603 28.5985C16.2384 29.5553 14.35 30.6629 11.0916 30.6629C10.9203 30.6629 10.7454 30.6602 10.566 30.6531C10.4375 30.6487 10.3188 30.5875 10.2411 30.4855C10.1635 30.3836 10.1358 30.2532 10.1661 30.129C10.209 29.9517 11.3005 25.7927 18.3625 25.7484C18.3625 25.7493 18.3634 25.7493 18.3643 25.7493ZM8.50171 39.238C8.48118 39.2407 8.46066 39.2425 8.44013 39.2425C8.33393 39.2425 8.23129 39.2034 8.15187 39.1316C8.05727 39.0456 8.0064 38.9214 8.01353 38.7946C8.02424 38.6129 8.34553 34.3262 15.2844 33.0217C15.4147 32.9978 15.5495 33.0341 15.6485 33.1219C15.7476 33.2097 15.7994 33.3383 15.7895 33.4704C15.786 33.521 15.6851 34.7128 14.7159 36.0208C13.8395 37.2038 12.0501 38.7228 8.50171 39.238ZM20.4366 73.5519C20.3929 73.5661 20.3473 73.5732 20.3018 73.5732C20.2215 73.5732 20.1421 73.551 20.0734 73.5076C19.9047 73.4011 15.977 70.8233 18.4169 63.5641C18.4589 63.4391 18.5571 63.3407 18.6829 63.2972C18.8087 63.2546 18.9471 63.2715 19.0577 63.3442C19.1015 63.3726 23.3879 66.2945 20.7008 73.3C20.6552 73.4198 20.5588 73.512 20.4366 73.5519ZM6.75249 39.042C6.73018 39.168 6.65253 39.2762 6.54098 39.3391C6.47672 39.3755 6.40443 39.3932 6.33214 39.3932C6.27948 39.3932 6.22594 39.3835 6.17596 39.364C5.9698 39.2833 1.14159 37.2924 2.26966 28.8432C2.28662 28.712 2.36515 28.5967 2.48028 28.5311C2.59541 28.4655 2.73463 28.4566 2.85779 28.5071C2.91045 28.5284 8.20452 30.8207 6.75249 39.042ZM14.923 66.6262C14.8498 66.7308 14.7329 66.7973 14.6044 66.8062C14.5936 66.8071 14.5829 66.8071 14.5722 66.8071C14.4553 66.8071 14.3438 66.7601 14.2625 66.6749C14.1251 66.5313 10.9435 63.0844 15.0818 56.6286C15.1532 56.5178 15.2728 56.4451 15.4049 56.4335C15.5397 56.422 15.6673 56.4726 15.7574 56.5701C15.7931 56.61 19.2389 60.4772 14.923 66.6262ZM6.63111 48.668C6.63558 48.7957 6.58203 48.9181 6.48564 49.0023C6.40711 49.0706 6.30715 49.1079 6.20452 49.1079C6.18131 49.1079 6.15722 49.1061 6.13401 49.1017C5.91536 49.0653 0.777467 48.1094 0.121509 39.6122C0.111692 39.481 0.163455 39.3515 0.262518 39.2637C0.361581 39.176 0.496342 39.1387 0.626641 39.1627C0.682866 39.1733 6.34017 40.327 6.63111 48.668ZM8.73286 30.325C8.69627 30.3348 8.65878 30.3392 8.62219 30.3392C8.53384 30.3392 8.44638 30.3117 8.3723 30.2594C8.20452 30.1397 4.29822 27.2364 7.26833 19.8655C7.31742 19.7431 7.42183 19.65 7.54946 19.6145C7.67708 19.5791 7.81452 19.6048 7.92072 19.6837C7.96445 19.7156 12.2206 22.9976 9.01131 30.0891C8.95865 30.2053 8.85691 30.2922 8.73286 30.325ZM14.1322 22.148C14.0082 22.117 13.9038 22.0319 13.8493 21.9166C13.7949 21.8013 13.7958 21.6674 13.8511 21.553C13.9305 21.389 15.8725 17.5474 22.7873 18.9689C22.9176 18.9956 23.0274 19.0807 23.0854 19.1995C23.1434 19.3183 23.1416 19.4576 23.0827 19.5755C23.0595 19.6207 22.5098 20.684 21.1122 21.5273C20.2563 22.0434 18.9551 22.5427 17.1247 22.5427C16.2501 22.5418 15.2559 22.4283 14.1322 22.148ZM13.2442 78.4522C13.2907 78.4176 17.9832 75.0718 24.3464 80.5202C24.4437 80.6036 24.4982 80.7259 24.4946 80.8527C24.491 80.9804 24.4303 81.0993 24.3286 81.1773C24.2331 81.2509 22.9471 82.2033 20.7106 82.2033C18.8382 82.2033 16.2991 81.5356 13.2335 79.1262C13.1291 79.0446 13.0693 78.9187 13.0711 78.7865C13.0738 78.6544 13.138 78.5312 13.2442 78.4522ZM13.0595 21.2329C13.0586 21.2329 13.0568 21.2329 13.0559 21.2329C12.9292 21.2329 12.8087 21.177 12.7275 21.0795C12.5954 20.9216 9.54768 17.1369 14.284 10.7432C14.3625 10.6368 14.4865 10.5729 14.6195 10.5703C14.7543 10.5676 14.8792 10.6261 14.9613 10.7299C14.9953 10.7725 18.2875 15.0104 13.3888 21.0742C13.3085 21.1735 13.188 21.232 13.0595 21.2329ZM33.1532 84.8131C33.2711 84.8645 33.3585 84.9656 33.3933 85.088C33.4272 85.2113 33.4049 85.3425 33.3308 85.4463C33.2371 85.5775 31.5557 87.8565 27.5281 87.8565C26.0519 87.8565 24.2617 87.5506 22.118 86.7214C21.9939 86.6736 21.9002 86.5707 21.8627 86.4439C21.8253 86.3171 21.8502 86.1805 21.9288 86.0741C21.9636 86.0271 25.4602 81.4602 33.1532 84.8131ZM7.00416 70.7328C7.05593 70.7071 12.2554 68.2099 17.5852 74.6621C17.6664 74.7606 17.6994 74.89 17.6735 75.0151C17.6476 75.1401 17.5673 75.2474 17.454 75.3068C17.3692 75.3512 16.4535 75.8114 14.981 75.8114C13.0381 75.8114 10.1278 75.0107 6.87654 71.3953C6.78819 71.2968 6.7507 71.1629 6.77569 71.0334C6.80068 70.9031 6.88547 70.7922 7.00416 70.7328ZM0.0715312 50.8663C0.142036 50.7653 0.257163 50.7014 0.381215 50.6961C0.435655 50.6925 5.8395 50.5249 7.92607 58.0581C7.9582 58.1734 7.93589 58.2967 7.86628 58.3933C7.79667 58.4909 7.68689 58.5521 7.56731 58.56C7.53428 58.5618 7.37989 58.5698 7.13535 58.5503C5.85467 58.4483 2.07867 57.5926 0.018876 51.214C-0.0186073 51.096 0.000134359 50.9674 0.0715312 50.8663ZM2.89171 61.0137C2.94882 61.0013 8.61059 59.8725 12.1528 67.4393C12.2072 67.5546 12.2063 67.6885 12.1501 67.8029C12.0939 67.9173 11.9894 68.0016 11.8645 68.0308C11.8127 68.0432 11.4807 68.1159 10.9506 68.1159C9.26923 68.1159 5.59854 67.3799 2.60255 61.6221C2.54186 61.505 2.53918 61.3658 2.59541 61.247C2.65253 61.1281 2.76141 61.0421 2.89171 61.0137ZM42.1457 88.5216C42.2679 88.5606 42.3661 88.652 42.4125 88.7708C42.4598 88.8896 42.45 89.0226 42.3866 89.1335C42.2974 89.2904 40.5473 92.254 35.5227 92.254C34.2572 92.254 32.7856 92.066 31.0783 91.5987C30.9498 91.5632 30.8462 91.471 30.7963 91.3486C30.7463 91.2263 30.757 91.0879 30.8239 90.9735C30.8552 90.923 33.9413 85.9012 42.1457 88.5216ZM18.0626 16.5871C18.0189 16.6021 17.9734 16.6092 17.9279 16.6092C17.8476 16.6092 17.7681 16.5871 17.6994 16.5436C17.5914 16.4753 17.5191 16.3627 17.504 16.2359C17.479 16.0319 16.9819 11.2105 24.4491 8.38614C24.5731 8.33914 24.7124 8.35244 24.8257 8.42161C24.939 8.49078 25.0131 8.60872 25.0265 8.73996C25.031 8.79406 25.4861 14.128 18.0626 16.5871ZM26.8828 78.4691C26.8221 78.4992 26.7561 78.5152 26.6901 78.5152C26.6311 78.5152 26.5722 78.5028 26.5169 78.4788C26.3349 78.3981 22.068 76.4233 23.4058 68.8857C23.429 68.7553 23.5111 68.6436 23.6298 68.5833C23.7476 68.5221 23.8868 68.5194 24.0082 68.5753C24.0555 68.5975 28.7284 70.8605 27.1086 78.1826C27.0801 78.3059 26.9971 78.4114 26.8828 78.4691ZM36.3375 78.6979C36.3001 78.5711 36.3242 78.4345 36.4018 78.3281C36.4803 78.2217 36.6035 78.1569 36.7365 78.1543C36.7847 78.156 41.9868 78.1135 43.8146 85.3877C43.8458 85.511 43.819 85.6422 43.7423 85.7442C43.6655 85.8462 43.5468 85.9091 43.4183 85.9145C43.4085 85.9145 43.3862 85.9154 43.3541 85.9154C42.7472 85.9154 38.4036 85.6662 36.3375 78.6979ZM34.8168 82.8941C34.79 82.8941 34.7632 82.8914 34.7365 82.8861C34.5401 82.8489 29.9341 81.8867 29.5165 74.2445C29.5093 74.1123 29.5638 73.9846 29.6646 73.8986C29.7655 73.8126 29.9011 73.7789 30.0305 73.8055C30.0814 73.8162 35.1497 74.9672 35.2434 82.4631C35.2452 82.5908 35.1889 82.7123 35.0908 82.7939C35.0131 82.8595 34.9159 82.8941 34.8168 82.8941Z" fill="white"/>
    <path d="M83.3215 17.6166C83.3215 17.6166 92.4344 27.2381 93.359 44.9808C94.2024 61.1742 84.1756 71.3819 80.786 74.6799C70.6459 84.5426 56.3487 86.991 49.1465 90.0575C47.1528 90.9061 40.3183 92.8872 36.6726 100.59H35.3125C35.3125 100.59 36.5557 92.9989 48.6209 88.8967C57.69 85.8134 59.4732 86.388 70.4736 80.9778C78.479 77.0405 84.745 70.2486 88.7387 63.2245C92.6441 56.3555 93.367 48.6911 92.6156 41.784C91.865 34.8777 91.0109 26.9544 83.3215 17.6166ZM91.5661 49.0733C91.6232 49.0733 91.6803 49.0617 91.7338 49.0396C91.8516 48.989 91.9409 48.8888 91.9766 48.7665C92.0319 48.5758 93.2528 44.0585 86.5843 40.2294C86.4692 40.1638 86.33 40.1541 86.2068 40.2046C86.0846 40.2552 85.9917 40.3598 85.9578 40.4866C85.9444 40.5372 84.6834 45.5474 91.3679 49.0236C91.4295 49.0573 91.4973 49.0733 91.5661 49.0733ZM85.9498 48.3745C86.0149 48.2592 86.1301 48.1812 86.2613 48.1626C86.3925 48.1439 86.5254 48.1865 86.6209 48.2796C92.1274 53.6304 89.8186 57.7061 89.7178 57.8772C89.6526 57.9872 89.542 58.0625 89.4143 58.0821C89.3929 58.0856 89.3706 58.0874 89.3492 58.0874C89.2448 58.0874 89.1421 58.0492 89.0636 57.9783C83.4536 52.9636 85.9248 48.4197 85.9498 48.3745ZM81.6392 25.7492C88.7013 25.7936 89.7927 29.9535 89.8356 30.1299C89.8659 30.2541 89.8382 30.3844 89.7606 30.4864C89.683 30.5884 89.5634 30.6496 89.4357 30.654C89.2564 30.6602 89.0814 30.6638 88.9101 30.6638C85.6517 30.6638 83.7633 29.5562 82.7414 28.5994C81.5518 27.4856 81.2367 26.3301 81.2242 26.2822C81.1903 26.1545 81.2189 26.0188 81.3001 25.9142C81.3813 25.8104 81.5053 25.7501 81.6374 25.7501C81.6374 25.7492 81.6383 25.7492 81.6392 25.7492ZM85.2849 36.0208C84.3157 34.7128 84.2149 33.5201 84.2113 33.4704C84.2015 33.3392 84.2532 33.2097 84.3523 33.1219C84.4514 33.0341 84.5861 32.9969 84.7164 33.0217C91.6553 34.3262 91.9775 38.6128 91.9873 38.7946C91.9944 38.9223 91.9436 39.0456 91.849 39.1316C91.7695 39.2034 91.6669 39.2425 91.5607 39.2425C91.5402 39.2425 91.5196 39.2407 91.4991 39.238C87.9507 38.7228 86.1613 37.2038 85.2849 36.0208ZM79.2992 73.3C76.612 66.2945 80.8985 63.3726 80.9422 63.3442C81.0529 63.2715 81.1912 63.2537 81.317 63.2972C81.4429 63.3398 81.541 63.4391 81.583 63.5641C84.023 70.8233 80.0953 73.4011 79.9266 73.5076C79.857 73.551 79.7775 73.5732 79.6981 73.5732C79.6526 73.5732 79.6071 73.5661 79.5634 73.5519C79.442 73.512 79.3447 73.4198 79.2992 73.3ZM97.1439 28.5062C97.2662 28.4557 97.4063 28.4646 97.5214 28.5302C97.6366 28.5958 97.7142 28.7111 97.7321 28.8423C98.8601 37.2907 94.0319 39.2824 93.8258 39.3631C93.7758 39.3826 93.7222 39.3923 93.6696 39.3923C93.5973 39.3923 93.525 39.3737 93.4607 39.3382C93.3492 39.2762 93.2706 39.1671 93.2492 39.0412C91.7954 30.8207 97.0904 28.5284 97.1439 28.5062ZM84.2425 56.5719C84.3318 56.4743 84.4603 56.4238 84.595 56.4353C84.7271 56.4468 84.8467 56.5187 84.9181 56.6304C89.0565 63.0853 85.8748 66.533 85.7374 66.6767C85.6562 66.7609 85.5446 66.8088 85.4277 66.8088C85.417 66.8088 85.4063 66.8088 85.3956 66.8079C85.268 66.7982 85.151 66.7317 85.077 66.6279C80.761 60.4772 84.2068 56.61 84.2425 56.5719ZM99.3742 39.1626C99.5045 39.1387 99.6392 39.1759 99.7383 39.2637C99.8374 39.3515 99.8891 39.481 99.8793 39.6122C99.2234 48.1102 94.0855 49.0653 93.8668 49.1017C93.8436 49.1061 93.8195 49.1079 93.7963 49.1079C93.6937 49.1079 93.5937 49.0706 93.5152 49.0023C93.4188 48.9181 93.3652 48.7957 93.3697 48.668C93.6607 40.327 99.3171 39.1733 99.3742 39.1626ZM90.9886 30.0891C87.7785 22.9976 92.0355 19.7165 92.0792 19.6837C92.1854 19.6048 92.3229 19.579 92.4505 19.6145C92.5781 19.65 92.6825 19.7431 92.7316 19.8655C95.7008 27.2355 91.7954 30.1397 91.6276 30.2594C91.5544 30.3117 91.467 30.3392 91.3777 30.3392C91.3412 30.3392 91.3037 30.3348 91.2671 30.325C91.1439 30.2922 91.0413 30.2053 90.9886 30.0891ZM82.8762 22.5418C81.0457 22.5418 79.7445 22.0425 78.8887 21.5264C77.4911 20.684 76.9404 19.6198 76.9181 19.5746C76.8583 19.4567 76.8574 19.3174 76.9154 19.1986C76.9734 19.0798 77.0832 18.9947 77.2135 18.9681C84.1283 17.5474 86.0703 21.3881 86.1497 21.5521C86.205 21.6665 86.2059 21.8004 86.1515 21.9157C86.0971 22.031 85.9935 22.1161 85.8686 22.1472C84.7441 22.4283 83.7499 22.5418 82.8762 22.5418ZM86.9279 78.7865C86.9297 78.9187 86.8699 79.0437 86.7655 79.1262C83.6999 81.5355 81.1609 82.2033 79.2885 82.2033C77.052 82.2033 75.7659 81.2509 75.6704 81.1773C75.5687 81.0993 75.508 80.9804 75.5044 80.8527C75.5009 80.725 75.5553 80.6035 75.6526 80.5202C82.0167 75.0718 86.7084 78.4176 86.7548 78.4522C86.8619 78.5311 86.9262 78.6544 86.9279 78.7865ZM86.6111 21.0742C81.7124 15.0104 85.0047 10.7725 85.0386 10.7299C85.1216 10.627 85.2465 10.5676 85.3804 10.5703C85.5134 10.5729 85.6374 10.6368 85.716 10.7432C90.4523 17.1369 87.4045 20.9216 87.2724 21.0795C87.1912 21.177 87.0707 21.2329 86.944 21.2329C86.9431 21.2329 86.9413 21.2329 86.9404 21.2329C86.8128 21.232 86.6914 21.1735 86.6111 21.0742ZM78.0712 86.0741C78.1497 86.1805 78.1747 86.3171 78.1372 86.4439C78.1006 86.5707 78.006 86.6727 77.882 86.7214C75.7383 87.5506 73.948 87.8565 72.4719 87.8565C68.4442 87.8565 66.7628 85.5784 66.6691 85.4462C66.595 85.3425 66.5718 85.2104 66.6066 85.088C66.6414 84.9656 66.7289 84.8645 66.8467 84.8131C74.5397 81.4602 78.0364 86.0271 78.0712 86.0741ZM93.2242 71.0326C93.2492 71.162 93.2117 71.2959 93.1234 71.3944C89.8731 75.0098 86.9618 75.8105 85.019 75.8105C83.5464 75.8105 82.6307 75.3503 82.546 75.3059C82.4326 75.2465 82.3523 75.1392 82.3264 75.0142C82.3014 74.8891 82.3336 74.7597 82.4148 74.6612C87.7445 68.2099 92.944 70.7062 92.9958 70.7319C93.1154 70.7922 93.1992 70.9031 93.2242 71.0326ZM99.9811 51.214C97.9222 57.5925 94.1462 58.4483 92.8646 58.5503C92.6201 58.5698 92.4665 58.5618 92.4326 58.56C92.313 58.552 92.2033 58.4909 92.1337 58.3933C92.064 58.2958 92.0426 58.1725 92.0739 58.0581C94.1604 50.524 99.5643 50.6925 99.6187 50.6961C99.7428 50.7023 99.857 50.7652 99.9284 50.8663C99.9998 50.9674 100.019 51.096 99.9811 51.214ZM97.4045 61.2478C97.4608 61.3676 97.4581 61.5059 97.3974 61.623C94.4014 67.3799 90.7307 68.1168 89.0493 68.1168C88.5192 68.1168 88.1872 68.0441 88.1354 68.0317C88.0105 68.0024 87.9061 67.9182 87.8498 67.8038C87.7936 67.6894 87.7927 67.5555 87.8472 67.4402C91.3893 59.8725 97.0511 61.0022 97.1082 61.0146C97.2385 61.0421 97.3483 61.1281 97.4045 61.2478ZM69.1751 90.9744C69.2421 91.0879 69.2528 91.2271 69.2028 91.3495C69.1528 91.4719 69.0484 91.5641 68.9208 91.5996C67.2144 92.0678 65.7418 92.2549 64.4763 92.2549C59.4518 92.2549 57.7016 89.2913 57.6124 89.1343C57.549 89.0235 57.5401 88.8896 57.5865 88.7717C57.6338 88.6528 57.7311 88.5615 57.8534 88.5225C66.0595 85.9012 69.1457 90.923 69.1751 90.9744ZM74.9752 8.73996C74.9886 8.60872 75.0627 8.49078 75.176 8.42161C75.2894 8.35244 75.4286 8.33914 75.5526 8.38614C83.0199 11.2096 82.5228 16.0319 82.4978 16.2359C82.4826 16.3627 82.4103 16.4753 82.3023 16.5436C82.2336 16.5871 82.1542 16.6092 82.0738 16.6092C82.0283 16.6092 81.9828 16.6021 81.9391 16.5871C74.5138 14.128 74.969 8.79406 74.9752 8.73996ZM72.8931 78.1809C71.2733 70.8587 75.9462 68.5957 75.9935 68.5735C76.114 68.5177 76.2541 68.5203 76.3719 68.5815C76.4897 68.6427 76.5727 68.7544 76.5959 68.8839C77.9337 76.4215 73.6669 78.3964 73.4848 78.4771C73.4295 78.501 73.3706 78.5134 73.3117 78.5134C73.2456 78.5134 73.1796 78.4983 73.1189 78.4673C73.0029 78.4114 72.9208 78.3059 72.8931 78.1809ZM56.6459 85.9153C56.6137 85.9153 56.5914 85.9145 56.5816 85.9145C56.4531 85.9091 56.3344 85.8462 56.2576 85.7442C56.1809 85.6422 56.1541 85.511 56.1854 85.3877C58.0131 78.1135 63.2153 78.1569 63.2635 78.1543C63.3964 78.1578 63.5205 78.2217 63.5981 78.3281C63.6767 78.4345 63.7008 78.5719 63.6624 78.6979C61.5972 85.6662 57.2527 85.9153 56.6459 85.9153ZM64.9092 82.7948C64.811 82.7132 64.7548 82.5917 64.7565 82.464C64.8503 74.9681 69.9176 73.817 69.9694 73.8064C70.0997 73.7798 70.2345 73.8135 70.3353 73.8995C70.4362 73.9855 70.4915 74.1132 70.4835 74.2453C70.0658 81.8876 65.4598 82.8497 65.2635 82.887C65.2367 82.8923 65.2099 82.895 65.1831 82.895C65.0841 82.8941 64.9868 82.8595 64.9092 82.7948Z" fill="white"/>
    <path d="M51.4058 1.94493C51.4058 2.69426 50.7954 3.29993 50.0413 3.29993C49.2862 3.29993 48.6794 2.69337 48.6794 1.94493C48.6794 1.19649 49.2862 0.59082 50.0413 0.59082C50.7954 0.59082 51.4058 1.19649 51.4058 1.94493ZM59.3434 4.89967C59.3434 5.649 59.9529 6.25467 60.7053 6.25467C61.4567 6.25467 62.0672 5.64811 62.0672 4.89967C62.0672 4.15035 61.4567 3.54556 60.7053 3.54556C59.9529 3.54556 59.3434 4.15035 59.3434 4.89967ZM39.2916 3.54556C38.5401 3.54556 37.9297 4.15123 37.9297 4.89967C37.9297 5.649 38.5401 6.25467 39.2916 6.25467C40.0439 6.25467 40.6535 5.64811 40.6535 4.89967C40.6535 4.15035 40.0448 3.54556 39.2916 3.54556ZM61.7004 6.70693H59.9056C59.903 6.71845 59.9003 6.7291 59.8985 6.73974H59.811C59.2506 8.61172 57.4772 8.71104 55.454 8.44501C53.4371 8.17986 51.7003 5.89552 51.1203 3.75218H51.0016H49.0024H48.8829C48.3001 5.89641 46.5669 8.18519 44.5473 8.44501C42.4759 8.71104 40.7454 8.61261 40.1894 6.73974H40.1019C40.0993 6.7291 40.0966 6.71757 40.0948 6.70693H38.2983C38.9971 9.43909 39.6968 12.1704 40.3956 14.9025C40.4768 14.8671 40.6178 14.8325 40.8105 14.7988C40.8168 14.8068 40.8248 14.8094 40.8275 14.8068C40.8311 14.8041 40.8284 14.7961 40.8284 14.7961C42.1296 14.5753 45.745 14.4175 50.0047 14.4175C54.2599 14.4175 57.8726 14.5762 59.1774 14.7961C59.2568 14.8068 59.3452 14.8236 59.4389 14.8484C59.4987 14.8644 59.554 14.8821 59.6058 14.8999C60.3028 12.1677 61.0016 9.43732 61.7004 6.70693Z" fill="url(#paint0_linear_2723_31039)"/>
    <path d="M7.38346 41.7849C6.63201 48.692 7.3549 56.3564 11.2603 63.2254C15.2541 70.2495 21.52 77.0414 29.5254 80.9787C40.5259 86.3889 42.309 85.8134 51.3782 88.8976C63.4434 92.9998 64.6865 100.591 64.6865 100.591H63.3264C59.6807 92.8881 52.8463 90.907 50.8525 90.0584C43.6504 86.991 29.354 84.5426 19.2139 74.6799C15.8243 71.3811 5.79845 61.1743 6.64182 44.9799C7.56552 27.2373 16.6793 17.6166 16.6793 17.6166C8.98989 26.9544 8.13491 34.8777 7.38346 41.7849ZM8.63201 49.0245C15.3174 45.5483 14.0564 40.5372 14.0421 40.4875C14.0082 40.3598 13.9154 40.2561 13.7931 40.2055C13.6708 40.155 13.5307 40.1638 13.4156 40.2303C6.74624 44.0594 7.96802 48.5767 8.02335 48.7673C8.05905 48.8897 8.1483 48.9899 8.2661 49.0405C8.31965 49.0635 8.37677 49.0742 8.43388 49.0742C8.5026 49.0733 8.57043 49.0573 8.63201 49.0245ZM10.9363 57.9765C10.8569 58.0475 10.7552 58.0856 10.6508 58.0856C10.6293 58.0856 10.607 58.0838 10.5856 58.0803C10.4589 58.0608 10.3473 57.9854 10.2822 57.8754C10.1813 57.7043 7.87163 53.6287 13.379 48.2778C13.4736 48.1856 13.6075 48.1422 13.7387 48.1608C13.8699 48.1794 13.9859 48.2583 14.0501 48.3727C14.076 48.4197 16.5463 52.9636 10.9363 57.9765ZM18.3643 25.7493C18.4964 25.7493 18.6204 25.8096 18.7016 25.9133C18.7829 26.0179 18.8114 26.1536 18.7775 26.2813C18.765 26.3301 18.45 27.4847 17.2603 28.5985C16.2384 29.5553 14.35 30.6629 11.0916 30.6629C10.9203 30.6629 10.7454 30.6602 10.566 30.6531C10.4375 30.6487 10.3188 30.5875 10.2411 30.4855C10.1635 30.3836 10.1358 30.2532 10.1661 30.129C10.209 29.9517 11.3005 25.7927 18.3625 25.7484C18.3625 25.7493 18.3634 25.7493 18.3643 25.7493ZM8.50171 39.238C8.48118 39.2407 8.46066 39.2425 8.44013 39.2425C8.33393 39.2425 8.23129 39.2034 8.15187 39.1316C8.05727 39.0456 8.0064 38.9214 8.01353 38.7946C8.02424 38.6129 8.34553 34.3262 15.2844 33.0217C15.4147 32.9978 15.5495 33.0341 15.6485 33.1219C15.7476 33.2097 15.7994 33.3383 15.7895 33.4704C15.786 33.521 15.6851 34.7128 14.7159 36.0208C13.8395 37.2038 12.0501 38.7228 8.50171 39.238ZM20.4366 73.5519C20.3929 73.5661 20.3473 73.5732 20.3018 73.5732C20.2215 73.5732 20.1421 73.551 20.0734 73.5076C19.9047 73.4011 15.977 70.8233 18.4169 63.5641C18.4589 63.4391 18.5571 63.3407 18.6829 63.2972C18.8087 63.2546 18.9471 63.2715 19.0577 63.3442C19.1015 63.3726 23.3879 66.2945 20.7008 73.3C20.6552 73.4198 20.5588 73.512 20.4366 73.5519ZM6.75249 39.042C6.73018 39.168 6.65253 39.2762 6.54098 39.3391C6.47672 39.3755 6.40443 39.3932 6.33214 39.3932C6.27948 39.3932 6.22594 39.3835 6.17596 39.364C5.9698 39.2833 1.14159 37.2924 2.26966 28.8432C2.28662 28.712 2.36515 28.5967 2.48028 28.5311C2.59541 28.4655 2.73463 28.4566 2.85779 28.5071C2.91045 28.5284 8.20452 30.8207 6.75249 39.042ZM14.923 66.6262C14.8498 66.7308 14.7329 66.7973 14.6044 66.8062C14.5936 66.8071 14.5829 66.8071 14.5722 66.8071C14.4553 66.8071 14.3438 66.7601 14.2625 66.6749C14.1251 66.5313 10.9435 63.0844 15.0818 56.6286C15.1532 56.5178 15.2728 56.4451 15.4049 56.4335C15.5397 56.422 15.6673 56.4726 15.7574 56.5701C15.7931 56.61 19.2389 60.4772 14.923 66.6262ZM6.63111 48.668C6.63558 48.7957 6.58203 48.9181 6.48564 49.0023C6.40711 49.0706 6.30715 49.1079 6.20452 49.1079C6.18131 49.1079 6.15722 49.1061 6.13401 49.1017C5.91536 49.0653 0.777467 48.1094 0.121509 39.6122C0.111692 39.481 0.163455 39.3515 0.262518 39.2637C0.361581 39.176 0.496342 39.1387 0.626641 39.1627C0.682866 39.1733 6.34017 40.327 6.63111 48.668ZM8.73286 30.325C8.69627 30.3348 8.65878 30.3392 8.62219 30.3392C8.53384 30.3392 8.44638 30.3117 8.3723 30.2594C8.20452 30.1397 4.29822 27.2364 7.26833 19.8655C7.31742 19.7431 7.42183 19.65 7.54946 19.6145C7.67708 19.5791 7.81452 19.6048 7.92072 19.6837C7.96445 19.7156 12.2206 22.9976 9.01131 30.0891C8.95865 30.2053 8.85691 30.2922 8.73286 30.325ZM14.1322 22.148C14.0082 22.117 13.9038 22.0319 13.8493 21.9166C13.7949 21.8013 13.7958 21.6674 13.8511 21.553C13.9305 21.389 15.8725 17.5474 22.7873 18.9689C22.9176 18.9956 23.0274 19.0807 23.0854 19.1995C23.1434 19.3183 23.1416 19.4576 23.0827 19.5755C23.0595 19.6207 22.5098 20.684 21.1122 21.5273C20.2563 22.0434 18.9551 22.5427 17.1247 22.5427C16.2501 22.5418 15.2559 22.4283 14.1322 22.148ZM13.2442 78.4522C13.2907 78.4176 17.9832 75.0718 24.3464 80.5202C24.4437 80.6036 24.4982 80.7259 24.4946 80.8527C24.491 80.9804 24.4303 81.0993 24.3286 81.1773C24.2331 81.2509 22.9471 82.2033 20.7106 82.2033C18.8382 82.2033 16.2991 81.5356 13.2335 79.1262C13.1291 79.0446 13.0693 78.9187 13.0711 78.7865C13.0738 78.6544 13.138 78.5312 13.2442 78.4522ZM13.0595 21.2329C13.0586 21.2329 13.0568 21.2329 13.0559 21.2329C12.9292 21.2329 12.8087 21.177 12.7275 21.0795C12.5954 20.9216 9.54768 17.1369 14.284 10.7432C14.3625 10.6368 14.4865 10.5729 14.6195 10.5703C14.7543 10.5676 14.8792 10.6261 14.9613 10.7299C14.9953 10.7725 18.2875 15.0104 13.3888 21.0742C13.3085 21.1735 13.188 21.232 13.0595 21.2329ZM33.1532 84.8131C33.2711 84.8645 33.3585 84.9656 33.3933 85.088C33.4272 85.2113 33.4049 85.3425 33.3308 85.4463C33.2371 85.5775 31.5557 87.8565 27.5281 87.8565C26.0519 87.8565 24.2617 87.5506 22.118 86.7214C21.9939 86.6736 21.9002 86.5707 21.8627 86.4439C21.8253 86.3171 21.8502 86.1805 21.9288 86.0741C21.9636 86.0271 25.4602 81.4602 33.1532 84.8131ZM7.00416 70.7328C7.05593 70.7071 12.2554 68.2099 17.5852 74.6621C17.6664 74.7606 17.6994 74.89 17.6735 75.0151C17.6476 75.1401 17.5673 75.2474 17.454 75.3068C17.3692 75.3512 16.4535 75.8114 14.981 75.8114C13.0381 75.8114 10.1278 75.0107 6.87654 71.3953C6.78819 71.2968 6.7507 71.1629 6.77569 71.0334C6.80068 70.9031 6.88547 70.7922 7.00416 70.7328ZM0.0715312 50.8663C0.142036 50.7653 0.257163 50.7014 0.381215 50.6961C0.435655 50.6925 5.8395 50.5249 7.92607 58.0581C7.9582 58.1734 7.93589 58.2967 7.86628 58.3933C7.79667 58.4909 7.68689 58.5521 7.56731 58.56C7.53428 58.5618 7.37989 58.5698 7.13535 58.5503C5.85467 58.4483 2.07867 57.5926 0.018876 51.214C-0.0186073 51.096 0.000134359 50.9674 0.0715312 50.8663ZM2.89171 61.0137C2.94882 61.0013 8.61059 59.8725 12.1528 67.4393C12.2072 67.5546 12.2063 67.6885 12.1501 67.8029C12.0939 67.9173 11.9894 68.0016 11.8645 68.0308C11.8127 68.0432 11.4807 68.1159 10.9506 68.1159C9.26923 68.1159 5.59854 67.3799 2.60255 61.6221C2.54186 61.505 2.53918 61.3658 2.59541 61.247C2.65253 61.1281 2.76141 61.0421 2.89171 61.0137ZM42.1457 88.5216C42.2679 88.5606 42.3661 88.652 42.4125 88.7708C42.4598 88.8896 42.45 89.0226 42.3866 89.1335C42.2974 89.2904 40.5473 92.254 35.5227 92.254C34.2572 92.254 32.7856 92.066 31.0783 91.5987C30.9498 91.5632 30.8462 91.471 30.7963 91.3486C30.7463 91.2263 30.757 91.0879 30.8239 90.9735C30.8552 90.923 33.9413 85.9012 42.1457 88.5216ZM18.0626 16.5871C18.0189 16.6021 17.9734 16.6092 17.9279 16.6092C17.8476 16.6092 17.7681 16.5871 17.6994 16.5436C17.5914 16.4753 17.5191 16.3627 17.504 16.2359C17.479 16.0319 16.9819 11.2105 24.4491 8.38614C24.5731 8.33914 24.7124 8.35244 24.8257 8.42161C24.939 8.49078 25.0131 8.60872 25.0265 8.73996C25.031 8.79406 25.4861 14.128 18.0626 16.5871ZM26.8828 78.4691C26.8221 78.4992 26.7561 78.5152 26.6901 78.5152C26.6311 78.5152 26.5722 78.5028 26.5169 78.4788C26.3349 78.3981 22.068 76.4233 23.4058 68.8857C23.429 68.7553 23.5111 68.6436 23.6298 68.5833C23.7476 68.5221 23.8868 68.5194 24.0082 68.5753C24.0555 68.5975 28.7284 70.8605 27.1086 78.1826C27.0801 78.3059 26.9971 78.4114 26.8828 78.4691ZM36.3375 78.6979C36.3001 78.5711 36.3242 78.4345 36.4018 78.3281C36.4803 78.2217 36.6035 78.1569 36.7365 78.1543C36.7847 78.156 41.9868 78.1135 43.8146 85.3877C43.8458 85.511 43.819 85.6422 43.7423 85.7442C43.6655 85.8462 43.5468 85.9091 43.4183 85.9145C43.4085 85.9145 43.3862 85.9154 43.3541 85.9154C42.7472 85.9154 38.4036 85.6662 36.3375 78.6979ZM34.8168 82.8941C34.79 82.8941 34.7632 82.8914 34.7365 82.8861C34.5401 82.8489 29.9341 81.8867 29.5165 74.2445C29.5093 74.1123 29.5638 73.9846 29.6646 73.8986C29.7655 73.8126 29.9011 73.7789 30.0305 73.8055C30.0814 73.8162 35.1497 74.9672 35.2434 82.4631C35.2452 82.5908 35.1889 82.7123 35.0908 82.7939C35.0131 82.8595 34.9159 82.8941 34.8168 82.8941Z" fill="url(#paint1_linear_2723_31039)"/>
    <path d="M83.3215 17.6166C83.3215 17.6166 92.4344 27.2381 93.359 44.9808C94.2024 61.1742 84.1756 71.3819 80.786 74.6799C70.6459 84.5426 56.3487 86.991 49.1465 90.0575C47.1528 90.9061 40.3183 92.8872 36.6726 100.59H35.3125C35.3125 100.59 36.5557 92.9989 48.6209 88.8967C57.69 85.8134 59.4732 86.388 70.4736 80.9778C78.479 77.0405 84.745 70.2486 88.7387 63.2245C92.6441 56.3555 93.367 48.6911 92.6156 41.784C91.865 34.8777 91.0109 26.9544 83.3215 17.6166ZM91.5661 49.0733C91.6232 49.0733 91.6803 49.0617 91.7338 49.0396C91.8516 48.989 91.9409 48.8888 91.9766 48.7665C92.0319 48.5758 93.2528 44.0585 86.5843 40.2294C86.4692 40.1638 86.33 40.1541 86.2068 40.2046C86.0846 40.2552 85.9917 40.3598 85.9578 40.4866C85.9444 40.5372 84.6834 45.5474 91.3679 49.0236C91.4295 49.0573 91.4973 49.0733 91.5661 49.0733ZM85.9498 48.3745C86.0149 48.2592 86.1301 48.1812 86.2613 48.1626C86.3925 48.1439 86.5254 48.1865 86.6209 48.2796C92.1274 53.6304 89.8186 57.7061 89.7178 57.8772C89.6526 57.9872 89.542 58.0625 89.4143 58.0821C89.3929 58.0856 89.3706 58.0874 89.3492 58.0874C89.2448 58.0874 89.1421 58.0492 89.0636 57.9783C83.4536 52.9636 85.9248 48.4197 85.9498 48.3745ZM81.6392 25.7492C88.7013 25.7936 89.7927 29.9535 89.8356 30.1299C89.8659 30.2541 89.8382 30.3844 89.7606 30.4864C89.683 30.5884 89.5634 30.6496 89.4357 30.654C89.2564 30.6602 89.0814 30.6638 88.9101 30.6638C85.6517 30.6638 83.7633 29.5562 82.7414 28.5994C81.5518 27.4856 81.2367 26.3301 81.2242 26.2822C81.1903 26.1545 81.2189 26.0188 81.3001 25.9142C81.3813 25.8104 81.5053 25.7501 81.6374 25.7501C81.6374 25.7492 81.6383 25.7492 81.6392 25.7492ZM85.2849 36.0208C84.3157 34.7128 84.2149 33.5201 84.2113 33.4704C84.2015 33.3392 84.2532 33.2097 84.3523 33.1219C84.4514 33.0341 84.5861 32.9969 84.7164 33.0217C91.6553 34.3262 91.9775 38.6128 91.9873 38.7946C91.9944 38.9223 91.9436 39.0456 91.849 39.1316C91.7695 39.2034 91.6669 39.2425 91.5607 39.2425C91.5402 39.2425 91.5196 39.2407 91.4991 39.238C87.9507 38.7228 86.1613 37.2038 85.2849 36.0208ZM79.2992 73.3C76.612 66.2945 80.8985 63.3726 80.9422 63.3442C81.0529 63.2715 81.1912 63.2537 81.317 63.2972C81.4429 63.3398 81.541 63.4391 81.583 63.5641C84.023 70.8233 80.0953 73.4011 79.9266 73.5076C79.857 73.551 79.7775 73.5732 79.6981 73.5732C79.6526 73.5732 79.6071 73.5661 79.5634 73.5519C79.442 73.512 79.3447 73.4198 79.2992 73.3ZM97.1439 28.5062C97.2662 28.4557 97.4063 28.4646 97.5214 28.5302C97.6366 28.5958 97.7142 28.7111 97.7321 28.8423C98.8601 37.2907 94.0319 39.2824 93.8258 39.3631C93.7758 39.3826 93.7222 39.3923 93.6696 39.3923C93.5973 39.3923 93.525 39.3737 93.4607 39.3382C93.3492 39.2762 93.2706 39.1671 93.2492 39.0412C91.7954 30.8207 97.0904 28.5284 97.1439 28.5062ZM84.2425 56.5719C84.3318 56.4743 84.4603 56.4238 84.595 56.4353C84.7271 56.4468 84.8467 56.5187 84.9181 56.6304C89.0565 63.0853 85.8748 66.533 85.7374 66.6767C85.6562 66.7609 85.5446 66.8088 85.4277 66.8088C85.417 66.8088 85.4063 66.8088 85.3956 66.8079C85.268 66.7982 85.151 66.7317 85.077 66.6279C80.761 60.4772 84.2068 56.61 84.2425 56.5719ZM99.3742 39.1626C99.5045 39.1387 99.6392 39.1759 99.7383 39.2637C99.8374 39.3515 99.8891 39.481 99.8793 39.6122C99.2234 48.1102 94.0855 49.0653 93.8668 49.1017C93.8436 49.1061 93.8195 49.1079 93.7963 49.1079C93.6937 49.1079 93.5937 49.0706 93.5152 49.0023C93.4188 48.9181 93.3652 48.7957 93.3697 48.668C93.6607 40.327 99.3171 39.1733 99.3742 39.1626ZM90.9886 30.0891C87.7785 22.9976 92.0355 19.7165 92.0792 19.6837C92.1854 19.6048 92.3229 19.579 92.4505 19.6145C92.5781 19.65 92.6825 19.7431 92.7316 19.8655C95.7008 27.2355 91.7954 30.1397 91.6276 30.2594C91.5544 30.3117 91.467 30.3392 91.3777 30.3392C91.3412 30.3392 91.3037 30.3348 91.2671 30.325C91.1439 30.2922 91.0413 30.2053 90.9886 30.0891ZM82.8762 22.5418C81.0457 22.5418 79.7445 22.0425 78.8887 21.5264C77.4911 20.684 76.9404 19.6198 76.9181 19.5746C76.8583 19.4567 76.8574 19.3174 76.9154 19.1986C76.9734 19.0798 77.0832 18.9947 77.2135 18.9681C84.1283 17.5474 86.0703 21.3881 86.1497 21.5521C86.205 21.6665 86.2059 21.8004 86.1515 21.9157C86.0971 22.031 85.9935 22.1161 85.8686 22.1472C84.7441 22.4283 83.7499 22.5418 82.8762 22.5418ZM86.9279 78.7865C86.9297 78.9187 86.8699 79.0437 86.7655 79.1262C83.6999 81.5355 81.1609 82.2033 79.2885 82.2033C77.052 82.2033 75.7659 81.2509 75.6704 81.1773C75.5687 81.0993 75.508 80.9804 75.5044 80.8527C75.5009 80.725 75.5553 80.6035 75.6526 80.5202C82.0167 75.0718 86.7084 78.4176 86.7548 78.4522C86.8619 78.5311 86.9262 78.6544 86.9279 78.7865ZM86.6111 21.0742C81.7124 15.0104 85.0047 10.7725 85.0386 10.7299C85.1216 10.627 85.2465 10.5676 85.3804 10.5703C85.5134 10.5729 85.6374 10.6368 85.716 10.7432C90.4523 17.1369 87.4045 20.9216 87.2724 21.0795C87.1912 21.177 87.0707 21.2329 86.944 21.2329C86.9431 21.2329 86.9413 21.2329 86.9404 21.2329C86.8128 21.232 86.6914 21.1735 86.6111 21.0742ZM78.0712 86.0741C78.1497 86.1805 78.1747 86.3171 78.1372 86.4439C78.1006 86.5707 78.006 86.6727 77.882 86.7214C75.7383 87.5506 73.948 87.8565 72.4719 87.8565C68.4442 87.8565 66.7628 85.5784 66.6691 85.4462C66.595 85.3425 66.5718 85.2104 66.6066 85.088C66.6414 84.9656 66.7289 84.8645 66.8467 84.8131C74.5397 81.4602 78.0364 86.0271 78.0712 86.0741ZM93.2242 71.0326C93.2492 71.162 93.2117 71.2959 93.1234 71.3944C89.8731 75.0098 86.9618 75.8105 85.019 75.8105C83.5464 75.8105 82.6307 75.3503 82.546 75.3059C82.4326 75.2465 82.3523 75.1392 82.3264 75.0142C82.3014 74.8891 82.3336 74.7597 82.4148 74.6612C87.7445 68.2099 92.944 70.7062 92.9958 70.7319C93.1154 70.7922 93.1992 70.9031 93.2242 71.0326ZM99.9811 51.214C97.9222 57.5925 94.1462 58.4483 92.8646 58.5503C92.6201 58.5698 92.4665 58.5618 92.4326 58.56C92.313 58.552 92.2033 58.4909 92.1337 58.3933C92.064 58.2958 92.0426 58.1725 92.0739 58.0581C94.1604 50.524 99.5643 50.6925 99.6187 50.6961C99.7428 50.7023 99.857 50.7652 99.9284 50.8663C99.9998 50.9674 100.019 51.096 99.9811 51.214ZM97.4045 61.2478C97.4608 61.3676 97.4581 61.5059 97.3974 61.623C94.4014 67.3799 90.7307 68.1168 89.0493 68.1168C88.5192 68.1168 88.1872 68.0441 88.1354 68.0317C88.0105 68.0024 87.9061 67.9182 87.8498 67.8038C87.7936 67.6894 87.7927 67.5555 87.8472 67.4402C91.3893 59.8725 97.0511 61.0022 97.1082 61.0146C97.2385 61.0421 97.3483 61.1281 97.4045 61.2478ZM69.1751 90.9744C69.2421 91.0879 69.2528 91.2271 69.2028 91.3495C69.1528 91.4719 69.0484 91.5641 68.9208 91.5996C67.2144 92.0678 65.7418 92.2549 64.4763 92.2549C59.4518 92.2549 57.7016 89.2913 57.6124 89.1343C57.549 89.0235 57.5401 88.8896 57.5865 88.7717C57.6338 88.6528 57.7311 88.5615 57.8534 88.5225C66.0595 85.9012 69.1457 90.923 69.1751 90.9744ZM74.9752 8.73996C74.9886 8.60872 75.0627 8.49078 75.176 8.42161C75.2894 8.35244 75.4286 8.33914 75.5526 8.38614C83.0199 11.2096 82.5228 16.0319 82.4978 16.2359C82.4826 16.3627 82.4103 16.4753 82.3023 16.5436C82.2336 16.5871 82.1542 16.6092 82.0738 16.6092C82.0283 16.6092 81.9828 16.6021 81.9391 16.5871C74.5138 14.128 74.969 8.79406 74.9752 8.73996ZM72.8931 78.1809C71.2733 70.8587 75.9462 68.5957 75.9935 68.5735C76.114 68.5177 76.2541 68.5203 76.3719 68.5815C76.4897 68.6427 76.5727 68.7544 76.5959 68.8839C77.9337 76.4215 73.6669 78.3964 73.4848 78.4771C73.4295 78.501 73.3706 78.5134 73.3117 78.5134C73.2456 78.5134 73.1796 78.4983 73.1189 78.4673C73.0029 78.4114 72.9208 78.3059 72.8931 78.1809ZM56.6459 85.9153C56.6137 85.9153 56.5914 85.9145 56.5816 85.9145C56.4531 85.9091 56.3344 85.8462 56.2576 85.7442C56.1809 85.6422 56.1541 85.511 56.1854 85.3877C58.0131 78.1135 63.2153 78.1569 63.2635 78.1543C63.3964 78.1578 63.5205 78.2217 63.5981 78.3281C63.6767 78.4345 63.7008 78.5719 63.6624 78.6979C61.5972 85.6662 57.2527 85.9153 56.6459 85.9153ZM64.9092 82.7948C64.811 82.7132 64.7548 82.5917 64.7565 82.464C64.8503 74.9681 69.9176 73.817 69.9694 73.8064C70.0997 73.7798 70.2345 73.8135 70.3353 73.8995C70.4362 73.9855 70.4915 74.1132 70.4835 74.2453C70.0658 81.8876 65.4598 82.8497 65.2635 82.887C65.2367 82.8923 65.2099 82.895 65.1831 82.895C65.0841 82.8941 64.9868 82.8595 64.9092 82.7948Z" fill="url(#paint2_linear_2723_31039)"/>
    <defs>
        <linearGradient id="paint0_linear_2723_31039" x1="-0.00165625" y1="50.5905" x2="99.9988" y2="50.5905" gradientUnits="userSpaceOnUse">
            <stop stop-color="white"/>
            <stop offset="0.0278" stop-color="#F1F0F0"/>
            <stop offset="0.0992" stop-color="#DBDBDB"/>
            <stop offset="0.1445" stop-color="#D3D3D4"/>
            <stop offset="0.2162" stop-color="#DADADA"/>
            <stop offset="0.3236" stop-color="#EEEDED"/>
            <stop offset="0.3808" stop-color="#D5D3D3"/>
            <stop offset="0.5258" stop-color="#E1E1E1"/>
            <stop offset="0.7054" stop-color="#E7E6E6"/>
            <stop offset="0.9024" stop-color="#D0CFCF"/>
            <stop offset="1" stop-color="#C2C2C2"/>
        </linearGradient>
        <linearGradient id="paint1_linear_2723_31039" x1="0.000134361" y1="50.5902" x2="100.001" y2="50.5902" gradientUnits="userSpaceOnUse">
            <stop stop-color="#BDBDBD"/>
            <stop offset="0.0992" stop-color="#DBDBDB"/>
            <stop offset="0.1445" stop-color="#D3D3D4"/>
            <stop offset="0.2162" stop-color="#DADADA"/>
            <stop offset="0.3236" stop-color="#D9D8D8"/>
            <stop offset="0.5258" stop-color="#CEC9C9"/>
            <stop offset="0.7054" stop-color="#D9D8D8"/>
            <stop offset="0.9024" stop-color="#CACACA"/>
        </linearGradient>
        <linearGradient id="paint2_linear_2723_31039" x1="-0.000366567" y1="50.5902" x2="100" y2="50.5902" gradientUnits="userSpaceOnUse">
            <stop stop-color="white"/>
            <stop offset="0.0278" stop-color="#F1F0F0"/>
            <stop offset="0.0992" stop-color="#BCBCBC"/>
            <stop offset="0.1445" stop-color="#D3D3D4"/>
            <stop offset="0.2162" stop-color="#DADADA"/>
            <stop offset="0.3236" stop-color="#EEEDED"/>
            <stop offset="0.5258" stop-color="#E3E3E3"/>
            <stop offset="0.7054" stop-color="#E7E6E6"/>
            <stop offset="0.9024" stop-color="#D0CFCF"/>
            <stop offset="1" stop-color="#C2C2C2"/>
        </linearGradient>
    </defs>
</svg>